<svg width="240" height="240" viewBox="0 0 240 240" xmlns="http://www.w3.org/2000/svg">
  <rect x="0" y="0" width="240" height="240" rx="32" fill="#0B0E1F"/>
  <polygon points="240,0 240,36 204,0" fill="#A855F7"/>
  <rect x="74" y="74" width="16" height="16" fill="#22D3EE"/>
  <rect x="150" y="74" width="16" height="16" fill="#22D3EE"/>
  <rect x="74" y="93" width="16" height="16" fill="#22D3EE"/>
  <rect x="93" y="93" width="16" height="16" fill="#22D3EE"/>
  <rect x="150" y="93" width="16" height="16" fill="#22D3EE"/>
  <rect x="74" y="112" width="16" height="16" fill="#22D3EE"/>
  <rect x="112" y="112" width="16" height="16" fill="#22D3EE"/>
  <rect x="150" y="112" width="16" height="16" fill="#22D3EE"/>
  <rect x="74" y="131" width="16" height="16" fill="#22D3EE"/>
  <rect x="131" y="131" width="16" height="16" fill="#22D3EE"/>
  <rect x="150" y="131" width="16" height="16" fill="#22D3EE"/>
  <rect x="74" y="150" width="16" height="16" fill="#22D3EE"/>
  <rect x="150" y="150" width="16" height="16" fill="#22D3EE"/>
</svg>
